<svg width="99" height="82" viewBox="0 0 99 82" fill="none" xmlns="http://www.w3.org/2000/svg">
<path d="M5.06485 78.9946C5.06485 82.2105 0.0400391 82.2105 0.0400391 78.9946C0.0400391 68.945 6.27081 60.3023 14.9135 56.8854C11.6976 54.2725 9.68768 50.2526 9.68768 45.6298C9.68768 37.7911 15.9185 31.3593 23.9582 31.3593C26.1691 31.3593 28.38 31.9623 30.3899 32.9673C33.0028 29.9524 36.2187 27.3395 40.2386 25.7316C36.8217 23.1187 34.8118 19.0988 34.8118 14.677C34.8118 6.83826 41.2435 0.406494 49.0822 0.406494C56.9209 0.406494 63.3527 6.83826 63.3527 14.677C63.3527 19.0988 61.1418 23.1187 57.9259 25.7316C61.7448 27.3395 65.1616 29.9524 67.7745 32.9673C69.5835 31.9623 71.7944 31.3593 74.2063 31.3593C82.045 31.3593 88.4768 37.7911 88.4768 45.6298C88.4768 50.2526 86.4668 54.2725 83.251 56.8854C91.8936 60.3023 98.1244 68.945 98.1244 78.9946C98.1244 82.2105 92.8986 82.2105 92.8986 78.9946C92.8986 68.543 84.6579 60.1013 74.2063 60.1013C63.9557 60.1013 55.514 68.543 55.514 78.9946C55.514 82.2105 50.4892 82.2105 50.4892 78.9946C50.4892 68.945 56.519 60.3023 65.3626 56.8854C62.1467 54.2725 59.9358 50.2526 59.9358 45.6298C59.9358 42.012 61.3428 38.5951 63.7547 36.1832C60.3378 31.9623 54.911 29.1484 49.0822 29.1484C43.0524 29.1484 37.8266 31.9623 34.4098 36.1832C36.6207 38.7961 38.0276 42.012 38.0276 45.6298C38.0276 50.2526 36.0177 54.2725 32.8018 56.8854C41.4445 60.3023 47.6753 68.945 47.6753 78.9946C47.6753 82.2105 42.6505 82.2105 42.6505 78.9946C42.6505 68.543 34.2088 60.1013 23.9582 60.1013C13.5065 60.1013 5.06485 68.543 5.06485 78.9946ZM49.0822 5.43131C44.0574 5.43131 39.8366 9.65215 39.8366 14.677C39.8366 19.7018 44.0574 23.7216 49.0822 23.7216C54.107 23.7216 58.1269 19.7018 58.1269 14.677C58.1269 9.65215 54.107 5.43131 49.0822 5.43131ZM74.2063 36.5852C69.1815 36.5852 65.1616 40.605 65.1616 45.6298C65.1616 50.8556 69.1815 54.8755 74.2063 54.8755C79.2311 54.8755 83.452 50.8556 83.452 45.6298C83.452 40.605 79.2311 36.5852 74.2063 36.5852ZM23.9582 36.5852C18.7323 36.5852 14.7125 40.605 14.7125 45.6298C14.7125 50.8556 18.7323 54.8755 23.9582 54.8755C28.983 54.8755 33.0028 50.8556 33.0028 45.6298C33.0028 40.605 28.983 36.5852 23.9582 36.5852Z" fill="#F5F1E7"/>
</svg>
