<svg width="67" height="84" viewBox="0 0 67 84" fill="none" xmlns="http://www.w3.org/2000/svg">
<path d="M15.5429 32.6191L15.543 32.6193C16.2554 33.6868 17.3493 34.3558 18.5613 34.4098C18.6198 34.4132 18.6741 34.4132 18.714 34.4131H18.7184C19.8746 34.4131 20.9618 33.8477 21.7313 32.8864L21.7314 32.8863L27.891 25.1877L27.8911 25.1876C28.5586 24.3526 28.4224 23.1384 27.5901 22.471L27.5901 22.471L27.5889 22.47C26.7551 21.806 25.5409 21.9382 24.8736 22.7729C24.8736 22.773 24.8735 22.773 24.8735 22.7731L18.7368 30.4439L16.6577 27.3233C16.0667 26.4363 14.8654 26.1938 13.9778 26.7868C13.0891 27.3784 12.8492 28.579 13.4414 29.4673L13.4414 29.4673L15.5429 32.6191Z" fill="#F5F1E7" stroke="#F5F1E7"/>
<path d="M31.1174 29.3707L31.1174 29.3713C31.1186 30.4404 31.9844 31.3035 33.052 31.3035H49.7191C50.7869 31.3035 51.6528 30.4393 51.6528 29.3707C51.6528 28.304 50.7869 27.4388 49.7191 27.4388H33.0511C31.9834 27.4388 31.1174 28.304 31.1174 29.3707Z" fill="#F5F1E7" stroke="#F5F1E7"/>
<path d="M27.5903 39.3991L27.5908 39.3996C28.4244 40.0666 28.5579 41.2818 27.8927 42.1166L27.892 42.1174L21.7326 49.8149C21.7325 49.815 21.7325 49.8151 21.7324 49.8151C20.9639 50.7764 19.8766 51.3428 18.7194 51.3428C18.6643 51.3428 18.6118 51.3406 18.5626 51.3377C17.3505 51.2855 16.2559 50.614 15.544 49.5461L27.5903 39.3991ZM27.5903 39.3991C26.756 38.7334 25.5416 38.8674 24.8747 39.7007L24.8747 39.7008L18.7385 47.3719L16.6586 44.252L16.6585 44.2519C16.0652 43.3625 14.8658 43.1242 13.9792 43.7144L13.979 43.7146C13.0904 44.307 12.8501 45.5067 13.4434 46.3961C13.4434 46.3962 13.4435 46.3962 13.4435 46.3962L15.544 49.5461L27.5903 39.3991Z" fill="#F5F1E7" stroke="#F5F1E7"/>
<path d="M33.052 48.2332H49.7191C50.7869 48.2332 51.6528 47.3689 51.6528 46.3004C51.6528 45.2318 50.7869 44.3676 49.7191 44.3676H33.0511C31.9834 44.3676 31.1174 45.2318 31.1174 46.3004C31.1174 47.3693 31.9847 48.2332 33.052 48.2332Z" fill="#F5F1E7" stroke="#F5F1E7"/>
<path d="M15.543 66.475L15.543 66.4751C16.2559 67.5433 17.3522 68.215 18.5657 68.2667L18.567 68.2668L18.5745 68.2671C18.6157 68.2687 18.6664 68.2708 18.7184 68.2708C19.8746 68.2708 20.9628 67.7044 21.7313 66.744L21.7314 66.7439L27.8907 59.0439C27.8907 59.0439 27.8908 59.0438 27.8909 59.0437C28.5587 58.2104 28.4226 56.9937 27.5894 56.3281C26.7545 55.6599 25.5401 55.7959 24.8737 56.6287L24.8736 56.6288L18.7381 64.3008L16.6576 61.1791L16.6575 61.1789C16.0662 60.2925 14.865 60.0519 13.978 60.6443C13.089 61.235 12.8492 62.4367 13.4415 63.3241C13.4415 63.3242 13.4416 63.3242 13.4416 63.3243L15.543 66.475ZM18.6147 64.4274C18.6147 64.4274 18.6149 64.4273 18.6152 64.4271L18.6147 64.4274Z" fill="#F5F1E7" stroke="#F5F1E7"/>
<path d="M33.052 65.1633H49.7191C50.7869 65.1633 51.6528 64.299 51.6528 63.2305C51.6528 62.1623 50.7873 61.2968 49.7191 61.2968H33.0511C31.983 61.2968 31.1174 62.1623 31.1174 63.2305C31.1174 64.2994 31.9847 65.1633 33.052 65.1633Z" fill="#F5F1E7" stroke="#F5F1E7"/>
<path d="M12.0859 82.9598H55.4929C61.3463 82.9598 66.1071 78.1982 66.1071 72.3456V18.0864C66.1071 12.2331 61.3464 7.47134 55.4929 7.47134H53.0523C52.7321 3.82803 49.6689 0.959839 45.9439 0.959839H21.6349C17.9081 0.959839 14.8466 3.82801 14.5264 7.47044H12.0859C6.23238 7.47044 1.47168 12.2322 1.47168 18.0855L1.47168 72.3447C1.47168 72.3447 1.47168 72.3447 1.47168 72.3447C1.47078 78.1982 6.23248 82.9598 12.0859 82.9598ZM18.3594 8.10184C18.3594 6.29613 19.8295 4.82544 21.6349 4.82544H45.9439C47.7493 4.82544 49.2194 6.29613 49.2194 8.10184V10.7064C49.2194 12.5122 47.7493 13.9828 45.9439 13.9828H21.6349C19.8295 13.9828 18.3594 12.5122 18.3594 10.7064V8.10184ZM5.33638 18.0864C5.33638 14.3656 8.36426 11.3369 12.0859 11.3369H14.5264C14.8467 14.9794 17.909 17.8475 21.6349 17.8475H45.9439C49.6698 17.8475 52.7321 14.9794 53.0523 11.3369H55.4929C59.2145 11.3369 62.2424 14.3648 62.2424 18.0864V72.3456C62.2424 76.0665 59.2154 79.0951 55.4929 79.0951H12.0859C8.36508 79.0951 5.33638 76.0673 5.33638 72.3456V18.0864Z" fill="#F5F1E7" stroke="#F5F1E7"/>
</svg>
