<svg width="103" height="84" viewBox="0 0 103 84" fill="none" xmlns="http://www.w3.org/2000/svg">
<path d="M75.183 80.3144L75.1822 80.3156C74.6083 81.166 74.8525 82.3055 75.7101 82.8606L75.7122 82.862C76.0269 83.0634 76.3812 83.1621 76.7332 83.1621C77.3283 83.1621 77.9215 82.8799 78.2828 82.3501L78.2858 82.3457C78.3778 82.2075 82.2765 76.3266 84.2077 67.9883C86.1409 59.6415 86.1103 48.7846 78.263 38.7868L78.263 38.7868C71.8239 30.5842 70.9408 21.9 71.6826 15.2258C72.0538 11.8869 72.8316 9.05519 73.5224 7.04762C73.8677 6.04426 74.1908 5.24802 74.4297 4.69868C74.5491 4.42404 74.6475 4.21125 74.7169 4.06527C74.7516 3.99229 74.7791 3.93605 74.7983 3.8972L74.8208 3.85219C74.8264 3.84109 74.8291 3.83598 74.8291 3.83599L74.8291 3.83597C75.304 2.92748 74.9333 1.82135 74.0195 1.36351L74.019 1.36326C73.1111 0.909609 71.9935 1.25197 71.5184 2.15223L71.5184 2.15222L71.5164 2.15605C71.4498 2.28488 68.8202 7.42219 67.9914 14.8106C67.1617 22.2077 68.1364 31.8826 75.3134 41.0263L75.3135 41.0263C82.3152 49.945 82.3336 59.688 80.5641 67.27C79.6792 71.0615 78.3488 74.302 77.2298 76.6083C76.6706 77.7609 76.1651 78.6785 75.7957 79.3131C75.6111 79.6304 75.4606 79.8768 75.3546 80.0463C75.3016 80.1311 75.2598 80.1966 75.2304 80.242L75.1959 80.2949L75.1863 80.3095L75.183 80.3144Z" fill="#F5F1E7" stroke="#F5F1E7"/>
<path d="M23.8053 82.3498L23.8049 82.3492C23.7081 82.2072 19.81 76.326 17.8793 67.9883C15.9464 59.6412 15.9774 48.7838 23.8247 38.7861L24.2121 39.0901L23.8247 38.7861C30.2789 30.5637 31.1618 21.8799 30.4163 15.2116C30.0434 11.8756 29.2628 9.04794 28.5698 7.04371C28.2234 6.04202 27.8992 5.24727 27.6596 4.69899C27.5398 4.42489 27.4412 4.21252 27.3716 4.06683C27.3368 3.99398 27.3092 3.93784 27.2899 3.89903L27.2673 3.854L27.261 3.8416L27.2596 3.83884L23.8053 82.3498ZM23.8053 82.3498C24.1681 82.8804 24.7586 83.1634 25.3568 83.1634C25.707 83.1634 26.0647 83.0655 26.3759 82.8637C27.2353 82.3063 27.477 81.1674 26.904 80.3176L23.8053 82.3498Z" fill="#F5F1E7" stroke="#F5F1E7"/>
<path d="M2.42156 22.9639H23.2772C24.296 22.9639 25.1402 22.1549 25.1402 21.1316C25.1402 20.1082 24.2961 19.2988 23.2772 19.2988H2.42156C1.4052 19.2988 0.558594 20.1077 0.558594 21.1316C0.558594 22.1549 1.40273 22.9639 2.42156 22.9639Z" fill="#F5F1E7" stroke="#F5F1E7"/>
<path d="M24.5927 19.831L24.5926 19.8309L19.0157 14.3789C19.0157 14.3789 19.0157 14.3789 19.0157 14.3789C18.288 13.6675 17.1163 13.6675 16.3887 14.3789C15.6552 15.0959 15.6541 16.2632 16.389 16.9792C16.3892 16.9793 16.3893 16.9794 16.3894 16.9795L20.6368 21.1321L16.3887 25.2852C15.6549 26.0025 15.6547 27.1669 16.388 27.8845C16.7513 28.2421 17.2285 28.419 17.701 28.419C18.1741 28.419 18.6516 28.242 19.017 27.8799L24.5911 22.4304C24.5914 22.4301 24.5917 22.4298 24.592 22.4296C24.9439 22.0879 25.1432 21.6198 25.1432 21.1301C25.1432 20.6414 24.9431 20.1738 24.5927 19.831Z" fill="#F5F1E7" stroke="#F5F1E7"/>
<path d="M78.8104 22.9639H99.666C100.685 22.9639 101.529 22.1549 101.529 21.1316C101.529 20.1082 100.685 19.2988 99.666 19.2988H78.8104C77.7913 19.2988 76.9474 20.1083 76.9474 21.1316C76.9474 22.1549 77.7914 22.9639 78.8104 22.9639Z" fill="#F5F1E7" stroke="#F5F1E7"/>
<path d="M85.7039 16.9824L85.7039 16.9824C86.4374 16.2653 86.4385 15.0978 85.7033 14.3818C84.9755 13.6711 83.8041 13.6712 83.0767 14.3824L77.5013 19.833C77.501 19.8333 77.5007 19.8336 77.5005 19.8338C77.1485 20.1756 76.9493 20.6437 76.9493 21.1333C76.9493 21.6221 77.1493 22.0896 77.4998 22.4323L77.8493 22.0747L77.4998 22.4323L83.0752 27.883C83.0755 27.8832 83.0758 27.8835 83.076 27.8837C83.4394 28.2414 83.9168 28.418 84.3892 28.418C84.8604 28.418 85.3346 28.2411 85.6996 27.8928L85.6996 27.8928L85.7039 27.8886C86.4375 27.1715 86.4385 26.004 85.7032 25.288L81.4556 21.1354L85.7039 16.9824Z" fill="#F5F1E7" stroke="#F5F1E7"/>
<path d="M25.7043 40.1533L25.7048 40.1535C26.3557 40.4072 36.333 44.1932 50.871 44.1932C58.3486 44.1932 67.0367 43.19 76.281 40.1901C77.2528 39.8751 77.795 38.8415 77.4658 37.8698L77.4656 37.8694C77.1385 36.9069 76.0796 36.3937 75.1142 36.7105C49.2363 45.1117 27.3106 36.8365 27.0767 36.7467C26.1298 36.3773 25.0465 36.8277 24.6615 37.7683L24.6615 37.7683L24.661 37.7696C24.276 38.7182 24.7539 39.7818 25.7043 40.1533Z" fill="#F5F1E7" stroke="#F5F1E7"/>
<path d="M20.4276 45.8821C20.6741 44.8895 21.6867 44.3032 22.6767 44.5375L22.6777 44.5378L22.6777 44.5378L25.3169 45.1686C25.3169 45.1686 25.3169 45.1686 25.317 45.1686C35.161 47.5198 44.2073 52.7974 51.0196 60.1241C57.5248 52.9792 66.2108 47.8037 75.702 45.4533L79.3822 44.5407L79.5026 45.026L79.3823 44.5407C80.364 44.2973 81.3865 44.8756 81.6418 45.8652L81.6419 45.8653C81.8975 46.8568 81.2833 47.8485 80.2924 48.0956L80.2917 48.0958L76.6111 49.008L76.611 49.008C67.1788 51.3436 58.6072 56.7011 52.4814 64.0851L52.481 64.0857C52.1271 64.511 51.6015 64.7555 51.0495 64.7583L50.9687 64.7587L50.9554 64.7544C50.4371 64.7322 49.9454 64.4977 49.6077 64.1001C43.1672 56.5284 34.2253 51.0685 24.437 48.73L24.4368 48.73L21.7976 48.0987L21.7972 48.0986C20.8046 47.8603 20.1804 46.875 20.4276 45.8821ZM20.4276 45.8821C20.4277 45.882 20.4277 45.882 20.4277 45.8819L20.9128 46.0027L20.4276 45.8823C20.4276 45.8822 20.4276 45.8822 20.4276 45.8821Z" fill="#F5F1E7" stroke="#F5F1E7"/>
<path d="M49.1732 81.3301C49.1732 82.3535 50.0175 83.1624 51.0362 83.1624C52.0549 83.1624 52.899 82.3535 52.899 81.3301V62.9235C52.899 61.9004 52.0551 61.0909 51.0362 61.0909C50.0199 61.0909 49.1732 61.8998 49.1732 62.9235V81.3301Z" fill="#F5F1E7" stroke="#F5F1E7"/>
</svg>
