<svg width="62" height="46" viewBox="0 0 62 46" fill="none" xmlns="http://www.w3.org/2000/svg">
<path d="M5.12109 0.984375H10.1309L16.625 20.2998L23.1006 0.984375H28.1104L18.6475 28H14.584L5.12109 0.984375ZM2.22656 0.984375H7.3291L8.27539 21.0049V28H2.22656V0.984375ZM25.9023 0.984375H31.0234V28H24.9561V21.0049L25.9023 0.984375Z" fill="#F5F1E7"/>
<path d="M57.3545 11.8574V16.5332H43.3643V11.8574H57.3545ZM45.2754 0.984375V28H39.2266V0.984375H45.2754ZM61.5293 0.984375V28H55.499V0.984375H61.5293Z" fill="#F5F1E7"/>
<path d="M2.5043 32.39H4.4354L5.2964 38.5523H5.321L6.182 32.39H8.1131V41H6.8339V34.481H6.8093L5.8253 41H4.6937L3.7097 34.481H3.6851V41H2.5043V32.39ZM11.8288 41.123C11.1728 41.123 10.6726 40.9385 10.3282 40.5695C9.98376 40.1923 9.81156 39.6552 9.81156 38.9582V32.39H11.1646V39.0566C11.1646 39.3518 11.222 39.565 11.3368 39.6962C11.4598 39.8274 11.632 39.893 11.8534 39.893C12.0748 39.893 12.2429 39.8274 12.3577 39.6962C12.4807 39.565 12.5422 39.3518 12.5422 39.0566V32.39H13.846V38.9582C13.846 39.6552 13.6738 40.1923 13.3294 40.5695C12.985 40.9385 12.4848 41.123 11.8288 41.123ZM26.3086 32.39H27.6616V39.77H29.8879V41H26.3086V32.39ZM31.2748 32.39H34.9648V33.62H32.6278V35.8955H34.4851V37.1255H32.6278V39.77H34.9648V41H31.2748V32.39ZM39.189 32.39H40.542V35.8955H41.9934V32.39H43.3464V41H41.9934V37.1255H40.542V41H39.189V32.39ZM45.0921 32.39H48.7821V33.62H46.4451V35.8955H48.3024V37.1255H46.4451V39.77H48.7821V41H45.0921V32.39ZM51.344 32.39H53.1767L54.5789 41H53.2259L52.9799 39.2903V39.3149H51.4424L51.1964 41H49.9418L51.344 32.39ZM52.82 38.1464L52.2173 33.8906H52.1927L51.6023 38.1464H52.82ZM55.9733 32.39H58.0397C58.7121 32.39 59.2164 32.5704 59.5526 32.9312C59.8888 33.292 60.0569 33.8209 60.0569 34.5179V38.8721C60.0569 39.5691 59.8888 40.098 59.5526 40.4588C59.2164 40.8196 58.7121 41 58.0397 41H55.9733V32.39ZM58.0151 39.77C58.2365 39.77 58.4046 39.7044 58.5194 39.5732C58.6424 39.442 58.7039 39.2288 58.7039 38.9336V34.4564C58.7039 34.1612 58.6424 33.948 58.5194 33.8168C58.4046 33.6856 58.2365 33.62 58.0151 33.62H57.3263V39.77H58.0151Z" fill="#F5F1E7"/>
<path d="M17.3065 41.123C16.6505 41.123 16.1544 40.9385 15.8182 40.5695C15.482 40.1923 15.3139 39.6552 15.3139 38.9582V38.4662H16.5931V39.0566C16.5931 39.6142 16.8268 39.893 17.2942 39.893C17.5238 39.893 17.696 39.8274 17.8108 39.6962C17.9338 39.5568 17.9953 39.3354 17.9953 39.032C17.9953 38.6712 17.9133 38.3555 17.7493 38.0849C17.5853 37.8061 17.2819 37.474 16.8391 37.0886C16.2815 36.5966 15.892 36.1538 15.6706 35.7602C15.4492 35.3584 15.3385 34.9074 15.3385 34.4072C15.3385 33.7266 15.5107 33.2018 15.8551 32.8328C16.1995 32.4556 16.6997 32.267 17.3557 32.267C18.0035 32.267 18.4914 32.4556 18.8194 32.8328C19.1556 33.2018 19.3237 33.7348 19.3237 34.4318V34.7885H18.0445V34.3457C18.0445 34.0505 17.9871 33.8373 17.8723 33.7061C17.7575 33.5667 17.5894 33.497 17.368 33.497C16.917 33.497 16.6915 33.7717 16.6915 34.3211C16.6915 34.6327 16.7735 34.9238 16.9375 35.1944C17.1097 35.465 17.4172 35.793 17.86 36.1784C18.4258 36.6704 18.8153 37.1173 19.0285 37.5191C19.2417 37.9209 19.3483 38.3924 19.3483 38.9336C19.3483 39.6388 19.172 40.18 18.8194 40.5572C18.475 40.9344 17.9707 41.123 17.3065 41.123ZM22.7686 41.123C22.1208 41.123 21.6247 40.9385 21.2802 40.5695C20.944 40.2005 20.7759 39.6798 20.7759 39.0074V34.3826C20.7759 33.7102 20.944 33.1895 21.2802 32.8205C21.6247 32.4515 22.1208 32.267 22.7686 32.267C23.4164 32.267 23.9084 32.4515 24.2446 32.8205C24.589 33.1895 24.7612 33.7102 24.7612 34.3826V35.2928H23.482V34.2965C23.482 33.7635 23.2565 33.497 22.8055 33.497C22.3545 33.497 22.129 33.7635 22.129 34.2965V39.1058C22.129 39.6306 22.3545 39.893 22.8055 39.893C23.2565 39.893 23.482 39.6306 23.482 39.1058V37.7897H24.7612V39.0074C24.7612 39.6798 24.589 40.2005 24.2446 40.5695C23.9084 40.9385 23.4164 41.123 22.7686 41.123Z" fill="#D1FF23"/>
</svg>
