<svg width="82" height="81" viewBox="0 0 82 81" fill="none" xmlns="http://www.w3.org/2000/svg">
<path d="M46.9044 23.1728C46.4298 23.1728 46.126 23.1538 46.0596 23.1538C45.0724 23.0969 44.294 22.29 44.2655 21.3028C44.256 20.8282 44.0567 9.57035 50.0938 5.1849C54.3274 2.09991 64.3987 0.239414 65.5378 0.0305829C66.1548 -0.0833247 66.8003 0.125506 67.2369 0.581137C67.6735 1.03677 67.8634 1.68224 67.7305 2.29924C67.6356 2.7264 65.4144 12.8452 61.9022 17.2781C57.6022 22.7077 49.5432 23.1728 46.9044 23.1728ZM63.2976 4.37806C59.6905 5.20389 54.5837 6.62774 52.3245 8.26041C49.2964 10.4531 48.3282 15.9492 48.1099 19.3379C50.9006 19.1766 56.1689 18.4077 58.9311 14.924C60.7631 12.6174 62.3579 7.79529 63.2976 4.37806Z" fill="#F5F1E7"/>
<path d="M71.1287 42.1576C70.7016 42.1576 70.3124 41.8633 70.208 41.4362C68.974 36.3293 66.5344 33.0545 62.9558 31.716C62.4622 31.5357 62.2154 30.9851 62.3958 30.4915C62.5761 29.9979 63.1267 29.7511 63.6203 29.9315C67.8159 31.4977 70.6541 35.2187 72.0495 40.9805C72.1729 41.4931 71.8596 42.0057 71.347 42.1291C71.2806 42.1481 71.2047 42.1576 71.1287 42.1576Z" fill="#F5F1E7"/>
<path d="M33.729 81.0001C29.2581 81.0001 25.9168 78.7883 24.417 77.1177C21.8921 74.8395 19.6614 72.2956 17.7914 69.5523C17.6965 69.4194 14.1843 64.7492 13.1212 62.9457C12.5896 62.0439 12.8934 60.8764 13.7951 60.3448C14.6969 59.8132 15.8644 60.117 16.396 61.0187C17.1839 62.3572 19.8987 66.0307 20.8764 67.3406C22.6514 69.932 24.7113 72.2766 27.0464 74.3649C27.1033 74.4219 27.1698 74.4788 27.2172 74.5453C27.3786 74.7256 31.4793 79.2345 38.5131 76.102C39.0352 75.8932 43.0029 74.3649 45.9456 74.3649C48.8882 74.3649 52.856 75.8932 53.3021 76.0641C60.4973 79.2725 64.6359 74.5833 64.6739 74.5358C64.7308 74.4693 64.7878 74.4124 64.8447 74.3554C81.3898 59.519 77.536 38.1233 77.4885 37.905C75.9697 31.6401 73.1125 27.3021 69.0214 25.1188C63.0317 21.9104 56.3112 24.312 56.2447 24.3405C56.1498 24.3784 56.0454 24.4069 55.941 24.4259C49.0685 25.7169 46.0215 25.6789 45.8886 25.6694C45.8506 25.6789 42.7846 25.7169 35.9122 24.4259C35.8078 24.4069 35.7129 24.3784 35.6084 24.3405C35.542 24.3215 28.755 21.9389 22.8033 25.1378C18.7311 27.3305 15.8834 31.659 14.3552 37.9999C14.3552 37.9999 13.8521 40.7811 13.9565 44.9483C13.985 45.9924 13.1496 46.8657 12.1055 46.8942C12.0865 46.8942 12.077 46.8942 12.058 46.8942C11.0329 46.8942 10.188 46.0779 10.1596 45.0432C10.0457 40.392 10.6152 37.3354 10.6437 37.2025C12.4662 29.6562 15.9594 24.5018 21.0472 21.7775C28.0336 18.0376 35.523 20.3062 36.757 20.7239C43.0504 21.9009 45.8506 21.8725 45.8981 21.882C45.974 21.8725 48.7838 21.9104 55.0962 20.7239C56.3302 20.3062 63.8196 18.0471 70.8059 21.7775C75.8938 24.4923 79.387 29.6562 81.1905 37.1076C81.3898 38.1613 85.481 60.8574 67.4551 77.1082C65.3289 79.4908 59.4531 82.9555 51.8213 79.5572C50.8816 79.187 47.8155 78.1524 45.9266 78.1524C44.0376 78.1524 40.9716 79.1965 39.9559 79.5952C37.7252 80.6014 35.6274 81.0001 33.729 81.0001Z" fill="#F5F1E7"/>
<path d="M46.1641 23.1634C45.4237 23.1634 44.7117 22.7268 44.408 21.9959C40.9623 13.7091 36.0453 11.5543 35.8364 11.4689C34.8777 11.0607 34.4126 9.95963 34.8113 8.99141C35.2099 8.0232 36.3016 7.55807 37.2698 7.94726C37.5356 8.05167 43.8195 10.6715 47.9201 20.5341C48.3188 21.5023 47.8632 22.6129 46.895 23.0115C46.6577 23.116 46.4109 23.1634 46.1641 23.1634Z" fill="#F5F1E7"/>
<path d="M45.1865 63.8759H8.16654C3.83805 63.8759 0.316406 60.5726 0.316406 56.5004V39.5281C0.316406 35.4654 3.83805 32.1621 8.16654 32.1621H13.2829C14.3271 32.1621 15.1814 33.0164 15.1814 34.0606C15.1814 35.1047 14.3271 35.959 13.2829 35.959H8.16654C5.92636 35.959 4.11333 37.5632 4.11333 39.5281C4.11333 41.5025 5.93585 43.0972 8.16654 43.0972H45.1865C46.2307 43.0972 47.085 43.9516 47.085 44.9957V61.9774C47.085 63.0311 46.2307 63.8759 45.1865 63.8759ZM4.11333 45.8405V56.5099C4.11333 58.4843 5.93585 60.0885 8.16654 60.0885H43.2881V46.8942H8.16654C6.68574 46.8942 5.29037 46.5145 4.11333 45.8405Z" fill="#F5F1E7"/>
<path d="M13.7385 62.5658C13.2164 62.5658 12.7892 62.1387 12.7892 61.6166V55.1808C12.7892 54.6587 13.2164 54.2316 13.7385 54.2316C14.2606 54.2316 14.6877 54.6587 14.6877 55.1808V61.6166C14.6877 62.1387 14.27 62.5658 13.7385 62.5658Z" fill="#F5F1E7"/>
<path d="M24.4841 62.5658C23.962 62.5658 23.5349 62.1387 23.5349 61.6166V55.1808C23.5349 54.6587 23.962 54.2316 24.4841 54.2316C25.0062 54.2316 25.4333 54.6587 25.4333 55.1808V61.6166C25.4333 62.1387 25.0157 62.5658 24.4841 62.5658Z" fill="#F5F1E7"/>
<path d="M35.2389 62.5658C34.7169 62.5658 34.2897 62.1387 34.2897 61.6166V55.1808C34.2897 54.6587 34.7169 54.2316 35.2389 54.2316C35.761 54.2316 36.1882 54.6587 36.1882 55.1808V61.6166C36.1882 62.1387 35.761 62.5658 35.2389 62.5658Z" fill="#F5F1E7"/>
</svg>
