<svg width="33" height="26" viewBox="0 0 33 26" fill="none" xmlns="http://www.w3.org/2000/svg">
<path d="M0.390625 25.1562V17.5625C0.390625 15.4687 0.796875 13.3281 1.60938 11.1406C2.45312 8.95312 3.53125 6.90625 4.84375 5C6.1875 3.0625 7.57812 1.4375 9.01562 0.125L15.9062 3.875C14.9375 5.65625 14.0312 7.625 13.1875 9.78125C12.375 11.9375 11.9688 14.5469 11.9688 17.6094V25.1562H0.390625ZM16.8438 25.1562V17.5625C16.8438 15.4687 17.25 13.3281 18.0625 11.1406C18.9062 8.95312 19.9844 6.90625 21.2969 5C22.6406 3.0625 24.0312 1.4375 25.4688 0.125L32.3594 3.875C31.3906 5.65625 30.4844 7.625 29.6406 9.78125C28.8281 11.9375 28.4219 14.5469 28.4219 17.6094V25.1562H16.8438Z" fill="#D1FF24"/>
</svg>
