<svg width="84" height="84" viewBox="0 0 84 84" fill="none" xmlns="http://www.w3.org/2000/svg">
<path d="M13.1689 82.7034H71.3877C74.5413 82.7034 77.5657 81.4506 79.7956 79.2207C82.0256 76.9908 83.2783 73.9663 83.2783 70.8127V12.594C83.2783 9.4404 82.0256 6.41598 79.7956 4.18605C77.5657 1.95613 74.5413 0.703369 71.3877 0.703369H13.1689C10.0154 0.703369 6.99093 1.95613 4.761 4.18605C2.53108 6.41598 1.27832 9.4404 1.27832 12.594V70.8127C1.27832 73.9663 2.53108 76.9908 4.761 79.2207C6.99093 81.4506 10.0154 82.7034 13.1689 82.7034ZM7.25797 6.68302C8.82566 5.11534 10.9519 4.23462 13.1689 4.23462H71.3877C73.6047 4.23462 75.731 5.11534 77.2987 6.68302C78.8664 8.25071 79.7471 10.3769 79.7471 12.594V70.8127C79.7471 73.0298 78.8664 75.156 77.2987 76.7237C75.731 78.2914 73.6047 79.1721 71.3877 79.1721H13.1689C10.9519 79.1721 8.82566 78.2914 7.25797 76.7237C5.69029 75.156 4.80957 73.0298 4.80957 70.8127V12.594C4.80957 10.377 5.69029 8.25071 7.25797 6.68302Z" fill="#F5F1E7" stroke="#F5F1E7"/>
<path d="M68.1045 19.1155C68.3937 19.4296 68.5593 19.8378 68.5706 20.2645C68.582 20.6914 68.4382 21.1079 68.166 21.437L58.0007 33.7467C57.8559 33.9299 57.6762 34.0825 57.4719 34.1957C57.2657 34.3101 57.0387 34.382 56.8043 34.4071C56.5699 34.4323 56.3328 34.4103 56.107 34.3424C55.8812 34.2745 55.6713 34.162 55.4897 34.0116C55.3081 33.8613 55.1584 33.6761 55.0496 33.4669C54.9407 33.2578 54.8748 33.029 54.8558 32.7939C54.8368 32.5589 54.8651 32.3225 54.9389 32.0986C55.012 31.8771 55.1282 31.6722 55.2808 31.4959L64.4352 20.4041C58.9599 15.0163 51.7115 11.8043 44.044 11.3664V13.8599C44.044 14.3282 43.858 14.7773 43.5269 15.1084C43.1958 15.4395 42.7467 15.6255 42.2784 15.6255C41.8102 15.6255 41.3611 15.4395 41.0299 15.1084C40.6988 14.7773 40.5128 14.3282 40.5128 13.8599V11.3664C32.8544 11.8039 25.6139 15.0089 20.1406 20.3857L29.2269 31.4141C29.386 31.5876 29.5088 31.7911 29.5881 32.0128C29.6694 32.2398 29.7032 32.4811 29.6877 32.7217C29.6721 32.9623 29.6074 33.1972 29.4976 33.4118C29.3877 33.6265 29.2351 33.8164 29.0491 33.9698C28.8631 34.1232 28.6476 34.2369 28.4159 34.3038C28.1843 34.3708 27.9414 34.3896 27.7022 34.359C27.463 34.3285 27.2326 34.2493 27.0252 34.1264C26.8228 34.0063 26.6465 33.8471 26.5065 33.658L16.3909 21.4371L16.3908 21.437C16.1186 21.1079 15.9749 20.6914 15.9862 20.2645C15.9976 19.8376 16.1633 19.4294 16.4525 19.1153L68.1045 19.1155ZM68.1045 19.1155C64.8185 15.5416 60.8265 12.6886 56.381 10.737M68.1045 19.1155L56.381 10.737M56.381 10.737C51.9356 8.78538 47.1334 7.77771 42.2784 7.77771M56.381 10.737L42.2784 7.77771M42.2784 7.77771C37.4234 7.77771 32.6213 8.78538 28.1758 10.737M42.2784 7.77771L28.1758 10.737M28.1758 10.737C23.7305 12.6885 19.7386 15.5414 16.4526 19.1152L28.1758 10.737Z" fill="#F5F1E7" stroke="#F5F1E7"/>
<path d="M43.8767 21.9699L43.8761 21.9686C43.7336 21.6653 43.5076 21.4088 43.2246 21.2292C42.9417 21.0495 42.6134 20.9541 42.2782 20.9541C41.9431 20.9541 41.6148 21.0495 41.3319 21.2292C41.0489 21.4088 40.8229 21.6653 40.6804 21.9686L40.6798 21.9699L36.4649 31.0009C33.9628 31.9135 31.71 33.4031 29.8899 35.3501C29.5694 35.6918 29.3977 36.1467 29.4126 36.615C29.4275 37.0834 29.6279 37.5267 29.9696 37.8473C30.3114 38.168 30.7665 38.3398 31.2349 38.3249C31.7033 38.31 32.1466 38.1096 32.4672 37.7679C33.7272 36.4254 35.2489 35.3554 36.9385 34.624C38.6281 33.8925 40.4498 33.5152 42.2909 33.5152C44.132 33.5152 45.9536 33.8925 47.6433 34.624C49.3329 35.3554 50.8546 36.4254 52.1146 37.7679L52.1349 37.7895L52.1575 37.8086C52.49 38.0879 52.9138 38.235 53.3478 38.2216C53.7819 38.2082 54.1958 38.0353 54.5104 37.736C54.825 37.4367 55.0183 37.0319 55.0533 36.599C55.0883 36.1662 54.9625 35.7356 54.7 35.3897L54.6845 35.3692L54.6669 35.3504C52.8467 33.4033 50.5938 31.9135 48.0916 31.0009L43.8767 21.9699ZM43.7515 30.0465C42.7711 29.9629 41.7854 29.9629 40.805 30.0465L42.2782 26.8935L43.7515 30.0465Z" fill="#F5F1E7" stroke="#F5F1E7"/>
</svg>
